<svg
        width="25"
        height="25"
        viewBox="0 0 25 25"
        fill="none"
        xmlns="http://www.w3.org/2000/svg"
      >
        <path
          fill-rule="evenodd"
          clip-rule="evenodd"
          d="M19.6937 4.08527C18.6376 3.00665 17.1313 2.6088 15.6569 3.02836C15.2419 3.14644 14.8097 2.90574 14.6917 2.49074C14.5735 2.07574 14.8143 1.64359 15.2293 1.5255C17.2482 0.951037 19.3486 1.49949 20.8102 2.99211C21.1121 3.3004 21.1069 3.79504 20.7985 4.0969C20.4902 4.39877 19.9956 4.39357 19.6937 4.08527ZM11.6567 3.44616C11.4336 3.06379 10.7838 2.8319 10.1238 3.20914C9.46609 3.585 9.35043 4.24755 9.56952 4.62325L12.2004 9.13484C12.4178 9.50757 12.2918 9.98592 11.9191 10.2033C11.5463 10.4206 11.068 10.2947 10.8506 9.92194L8.21976 5.41037C8.21962 5.41014 8.21988 5.41059 8.21976 5.41037L7.34279 3.9065C7.11981 3.52413 6.47001 3.29224 5.80994 3.66948C5.15227 4.04535 5.0366 4.70789 5.2557 5.0836L9.20204 11.851C9.41939 12.2237 9.29344 12.7021 8.92071 12.9194C8.54798 13.1368 8.06962 13.0109 7.85227 12.638L6.09834 9.63036C5.87536 9.24798 5.22556 9.0161 4.56549 9.39334C3.90782 9.7692 3.79216 10.4317 4.01125 10.8074L7.95759 17.5748C9.63357 20.4489 13.7694 21.3816 17.2767 19.3771C20.7814 17.3741 22.0274 13.3725 20.3553 10.5051L17.7244 5.99354C17.5013 5.61117 16.8516 5.37927 16.1916 5.75651C15.5338 6.13238 15.4182 6.79492 15.6373 7.17064L17.3912 10.1784C17.4961 10.3584 17.5249 10.5728 17.4709 10.7741C17.417 10.9754 17.2849 11.1468 17.1039 11.2502C15.4973 12.1685 15.0049 13.944 15.7082 15.1502C15.9256 15.523 15.7997 16.0014 15.427 16.2187C15.0543 16.4361 14.5758 16.3101 14.3585 15.9374C13.2551 14.0452 13.9497 11.7049 15.6745 10.3362L11.6567 3.44616ZM14.4985 5.2178L13.0063 2.65906C12.2607 1.38031 10.5864 1.145 9.34846 1.85256C8.9669 2.07062 8.64236 2.36954 8.39769 2.71633C7.56429 1.79874 6.12905 1.68743 5.03463 2.3129C3.79417 3.02184 3.15636 4.58531 3.90594 5.87071L4.94986 7.66088C4.54878 7.70445 4.15096 7.83057 3.79019 8.03675C2.54972 8.7457 1.91192 10.3092 2.66149 11.5946L6.60782 18.3619C8.80652 22.1323 13.9667 23.0685 18.052 20.7337C22.1396 18.3975 23.9076 13.4951 21.705 9.71801L19.0742 5.20643C18.3284 3.92768 16.6543 3.69238 15.4162 4.39993C15.0516 4.60832 14.7391 4.89052 14.4985 5.2178ZM4.59792 18.603C4.97064 18.3858 5.449 18.5117 5.66635 18.8844C6.52767 20.3615 7.84443 21.4784 9.46826 22.2031C9.86227 22.379 10.0391 22.841 9.86327 23.235C9.68742 23.629 9.22546 23.8059 8.83145 23.63C6.94445 22.7878 5.36132 21.463 4.31658 19.6715C4.09923 19.2988 4.22519 18.8204 4.59792 18.603Z"
          fill="#F1FBE8"></path>
      </svg>